# xmcd
#
# Track frame offsets:
# 150
# 26580
# 50080
# 75820
# 107849
# 129827
# 146885
# 183145
# 200747
# 220957
# 238851
# 257935
# 281908
# 311209
#
# Disc length: 4435 seconds
#
# Revision: 0
# Processed by: cddbd v1.4PL0 Copyright (c) Steve Scherf et al.
# Submitted via: Audion 3.0.2 (http://www.panic.com/audion/)
#
DISCID=d611510e
DTITLE=James Patterson - 2nd Chance Disk 4
DYEAR=1900
DGENRE=
TTITLE0=Chapter 37
TTITLE1=Chapter 38
TTITLE2=Chapter 39
TTITLE3=Chapter 40
TTITLE4=Chapter 41
TTITLE5=Chapter 42
TTITLE6=Chapter 43
TTITLE7=Chapter 44
TTITLE8=Chapter 45
TTITLE9=Chapter 46
TTITLE10=Chapter 47
TTITLE11=Chapter 48
TTITLE12=Chapter 49
TTITLE13=Chapter 50
EXTD=
EXTT0=
EXTT1=
EXTT2=
EXTT3=
EXTT4=
EXTT5=
EXTT6=
EXTT7=
EXTT8=
EXTT9=
EXTT10=
EXTT11=
EXTT12=
EXTT13=
PLAYORDER=
